<svg width="62" height="61" viewBox="0 0 62 61" fill="none" xmlns="http://www.w3.org/2000/svg">
<path d="M61.05 30.56C61.05 47.3 47.47 60.9 30.71 60.9C13.95 60.9 0.359985 47.3 0.359985 30.56C0.359985 13.79 13.94 0.209961 30.71 0.209961C47.46 0.209961 61.05 13.78 61.05 30.56Z" fill="#676767"/>
<path fill-rule="evenodd" clip-rule="evenodd" d="M44.12 18.5898H17.29C13.68 18.5898 10.76 21.5198 10.76 25.1198V35.9698C10.76 39.5798 13.69 42.4998 17.29 42.4998H44.12C47.73 42.4998 50.65 39.5698 50.65 35.9698V25.1298C50.65 21.5198 47.73 18.5898 44.12 18.5898ZM26.75 35.1098V25.9898L34.65 30.5498L26.75 35.1098Z" fill="white"/>
</svg>