<svg width="33" height="32" viewBox="0 0 33 32" fill="none" xmlns="http://www.w3.org/2000/svg">
<path d="M15.3458 0C16.1166 0 16.8927 0 17.6634 0C18.1914 0.0665879 18.7246 0.122932 19.2525 0.210008C21.7919 0.635146 24.1254 1.56226 26.2002 3.0528C29.7374 5.59851 31.9336 8.96888 32.7413 13.1793C32.8469 13.7376 32.9155 14.3062 33 14.8696C33 15.6174 33 16.3704 33 17.1182C32.9789 17.2104 32.9525 17.2975 32.9366 17.3897C32.7783 18.2912 32.6885 19.2081 32.4509 20.0839C29.9802 29.145 20.0814 34.2006 10.9745 31.071C3.46723 28.4945 -1.1047 20.9854 0.230981 13.3739C0.864505 9.74745 2.58558 6.66904 5.38892 4.17967C7.7488 2.08984 10.5099 0.768322 13.667 0.240741C14.2213 0.148542 14.7862 0.0819544 15.3458 0ZM17.6054 14.0142C17.6054 13.2254 17.5843 12.4878 17.6107 11.7502C17.6318 11.1919 18.0013 10.818 18.5821 10.7616C19.0836 10.7104 19.5904 10.7207 20.092 10.7053C20.4457 10.695 20.5777 10.5772 20.5777 10.2289C20.5829 9.64501 20.5829 9.06108 20.5777 8.47716C20.5724 8.15958 20.4298 8.0008 20.1078 8.00592C19.3053 8.01104 18.4976 8.0008 17.6951 8.06738C16.1588 8.19032 14.9393 9.21987 14.7123 10.6848C14.5592 11.6426 14.6067 12.6312 14.5645 13.6044C14.5592 13.7376 14.5645 13.8657 14.5645 14.0296C13.9732 14.0296 13.4294 14.0244 12.8856 14.0296C12.4685 14.0347 12.326 14.1679 12.326 14.5776C12.3207 15.223 12.3207 15.8684 12.326 16.5138C12.326 16.9338 12.4685 17.067 12.9067 17.067C13.4505 17.067 13.9943 17.067 14.5697 17.067C14.5697 17.2155 14.5697 17.3282 14.5697 17.4358C14.5697 19.4437 14.5645 21.4567 14.5645 23.4646C14.5645 23.9358 14.6173 23.9921 15.0924 23.9921C15.7365 23.9921 16.3806 23.9921 17.0246 23.9921C17.5103 23.9921 17.5843 23.9204 17.5843 23.4543C17.5843 21.4567 17.5843 19.4539 17.5843 17.4563C17.5843 17.3334 17.5843 17.2155 17.5843 17.067C18.355 17.067 19.0836 17.067 19.8121 17.067C20.2556 17.067 20.377 16.9543 20.4246 16.5292C20.4932 15.9299 20.5618 15.3306 20.6304 14.7313C20.6991 14.132 20.5882 14.0142 19.9652 14.0142C19.1892 14.0142 18.4078 14.0142 17.6054 14.0142Z" fill="#575756"/>
</svg>
