<svg width="33" height="32" viewBox="0 0 33 32" fill="none" xmlns="http://www.w3.org/2000/svg">
<path d="M15.3458 0C16.1166 0 16.8927 0 17.6634 0C18.1914 0.0665879 18.7246 0.122932 19.2525 0.210008C21.7919 0.635146 24.1254 1.56226 26.2002 3.0528C29.7374 5.59851 31.9336 8.96888 32.7413 13.1793C32.8469 13.7376 32.9155 14.3062 33 14.8696C33 15.6174 33 16.3704 33 17.1182C32.9789 17.2104 32.9525 17.2975 32.9366 17.3897C32.7783 18.2912 32.6885 19.2081 32.4509 20.0839C29.9802 29.145 20.0814 34.2006 10.9745 31.071C3.46723 28.4945 -1.1047 20.9854 0.230981 13.3739C0.864505 9.74745 2.58558 6.66904 5.38892 4.17967C7.7488 2.08984 10.5099 0.768322 13.667 0.240741C14.2213 0.148542 14.7862 0.0819544 15.3458 0ZM17.6054 14.0142C17.6054 13.2254 17.5843 12.4878 17.6107 11.7502C17.6318 11.1919 18.0013 10.818 18.5821 10.7616C19.0836 10.7104 19.5904 10.7207 20.092 10.7053C20.4457 10.695 20.5777 10.5772 20.5777 10.2289C20.5829 9.64501 20.5829 9.06108 20.5777 8.47716C20.5724 8.15958 20.4298 8.0008 20.1078 8.00592C19.3053 8.01104 18.4976 8.0008 17.6951 8.06738C16.1588 8.19032 14.9393 9.21987 14.7123 10.6848C14.5592 11.6426 14.6067 12.6312 14.5645 13.6044C14.5592 13.7376 14.5645 13.8657 14.5645 14.0296C13.9732 14.0296 13.4294 14.0244 12.8856 14.0296C12.4685 14.0347 12.326 14.1679 12.326 14.5776C12.3207 15.223 12.3207 15.8684 12.326 16.5138C12.326 16.9338 12.4685 17.067 12.9067 17.067C13.4505 17.067 13.9943 17.067 14.5697 17.067C14.5697 17.2155 14.5697 17.3282 14.5697 17.4358C14.5697 19.4437 14.5645 21.4567 14.5645 23.4646C14.5645 23.9358 14.6173 23.9921 15.0924 23.9921C15.7365 23.9921 16.3806 23.9921 17.0246 23.9921C17.5103 23.9921 17.5843 23.9204 17.5843 23.4543C17.5843 21.4567 17.5843 19.4539 17.5843 17.4563C17.5843 17.3334 17.5843 17.2155 17.5843 17.067C18.355 17.067 19.0836 17.067 19.8121 17.067C20.2556 17.067 20.377 16.9543 20.4246 16.5292C20.4932 15.9299 20.5618 15.3306 20.6304 14.7313C20.6991 14.132 20.5882 14.0142 19.9652 14.0142C19.1892 14.0142 18.4078 14.0142 17.6054 14.0142Z" fill="#575756"/>
<path d="M18.0662 14.0135C18.8423 14.0135 19.593 14.0135 20.3437 14.0135C20.9423 14.0135 21.0488 14.1314 20.9829 14.7312C20.9169 15.331 20.851 15.9308 20.7851 16.5306C20.7394 16.9612 20.6177 17.0689 20.1966 17.0689C19.4966 17.0689 18.7966 17.0689 18.056 17.0689C18.056 17.2176 18.056 17.3406 18.056 17.4585C18.056 19.4579 18.056 21.4624 18.056 23.4617C18.056 23.9282 17.985 24 17.5183 24C16.8995 24 16.2807 24 15.6618 24C15.2053 24 15.1546 23.9487 15.1546 23.472C15.1546 21.4624 15.1596 19.4476 15.1596 17.438C15.1596 17.3252 15.1596 17.2124 15.1596 17.0689C14.6067 17.0689 14.0843 17.0689 13.5618 17.0689C13.1408 17.0689 13.0038 16.9356 13.0038 16.5152C12.9987 15.8693 12.9987 15.2233 13.0038 14.5774C13.0038 14.1724 13.1408 14.034 13.5415 14.0288C14.064 14.0237 14.5915 14.0288 15.1546 14.0288C15.1546 13.8648 15.1495 13.7315 15.1546 13.6033C15.1951 12.6293 15.1546 11.6399 15.2966 10.6812C15.5198 9.215 16.6865 8.18456 18.1626 8.06152C18.9336 7.99487 19.7046 8.01025 20.4807 8C20.7901 8 20.9271 8.1538 20.9322 8.47164C20.9372 9.05607 20.9372 9.6405 20.9322 10.2249C20.9271 10.5684 20.8003 10.6863 20.4655 10.7017C19.9684 10.712 19.4865 10.7017 19.0046 10.753C18.4466 10.8094 18.0915 11.1836 18.0713 11.7424C18.0459 12.4806 18.0662 13.2188 18.0662 14.0135Z" fill="white"/>
</svg>