<svg width="33" height="34" viewBox="0 0 33 34" fill="none" xmlns="http://www.w3.org/2000/svg">
<path d="M8.28588 16.9956C8.28588 15.9499 8.28588 14.9043 8.28588 13.8535C8.29103 11.4428 9.83633 9.53177 12.1955 9.04243C12.52 8.97546 12.86 8.94971 13.1948 8.94971C15.2861 8.9394 17.3826 8.94456 19.4739 8.94456C21.8846 8.94971 23.7904 10.5002 24.2798 12.8593C24.3467 13.1735 24.3725 13.5032 24.3725 13.8277C24.3828 15.9293 24.3828 18.0361 24.3776 20.1377C24.3725 22.5432 22.8117 24.4543 20.4526 24.9384C20.1281 25.0054 19.7881 25.026 19.4533 25.026C17.3723 25.0363 15.2861 25.0312 13.2051 25.0312C10.7893 25.026 8.87824 23.4807 8.3889 21.1267C8.32194 20.8022 8.29618 20.4622 8.29618 20.1274C8.27558 19.0869 8.28588 18.0412 8.28588 16.9956ZM22.7448 16.9904C22.7396 16.9904 22.7396 16.9904 22.7448 16.9904C22.7448 15.816 22.7757 14.6467 22.7345 13.4723C22.683 11.9579 21.3385 10.6083 19.8241 10.5877C17.501 10.5517 15.1728 10.5517 12.8497 10.5877C11.3147 10.6083 9.95481 11.9527 9.9239 13.4929C9.88269 15.8263 9.88269 18.1649 9.9239 20.4983C9.94965 22.023 11.2992 23.3674 12.8188 23.3983C15.1522 23.4395 17.4907 23.4395 19.8241 23.3983C21.3694 23.3725 22.683 22.0281 22.7345 20.4828C22.7757 19.3187 22.7448 18.1546 22.7448 16.9904Z" fill="white"/>
<path d="M16.3163 12.8387C18.6291 12.8387 20.4783 14.6931 20.4783 17.011C20.4783 19.2775 18.6085 21.1421 16.3369 21.1421C14.0344 21.1421 12.18 19.2929 12.1749 17.0007C12.1749 14.6982 14.0241 12.8439 16.3163 12.8387ZM18.8815 16.975C18.866 15.5688 17.6916 14.4098 16.306 14.4355C14.8946 14.4613 13.7408 15.6409 13.7717 17.0213C13.8078 18.4224 14.9513 19.5505 16.3317 19.5453C17.738 19.5402 18.9021 18.3658 18.8815 16.975Z" fill="white"/>
<path d="M20.5195 11.8188C21.081 11.8188 21.5343 12.2721 21.5394 12.8284C21.5446 13.3744 21.0707 13.8432 20.5247 13.8483C19.9581 13.8535 19.479 13.3744 19.4893 12.813C19.4996 12.2567 19.9478 11.8188 20.5195 11.8188Z" fill="white"/>
<path d="M32.166 14.1625C31.383 9.9284 29.2402 6.53903 25.7839 3.97898C23.7595 2.48003 21.4879 1.5477 19.0051 1.12017C18.49 1.0326 17.9749 0.975938 17.4547 0.908975C16.7078 0.903824 15.9506 0.903824 15.1985 0.903824C14.6525 0.98624 14.1014 1.0532 13.5605 1.14592C10.4802 1.68163 7.78623 3.00544 5.47858 5.10705C2.74339 7.60529 1.06931 10.7062 0.446036 14.3531C-0.85717 22.0075 3.60876 29.5589 10.9283 32.1499C19.819 35.292 29.4771 30.2131 31.8775 21.1061C32.1093 20.2201 32.1969 19.2981 32.3514 18.3967C32.3669 18.3039 32.3926 18.2164 32.4132 18.1237C32.4132 17.3716 32.4132 16.6144 32.4132 15.8624C32.336 15.2958 32.269 14.724 32.166 14.1625ZM20.4474 24.9436C20.1229 25.0106 19.7829 25.0312 19.4481 25.0312C17.3671 25.0415 15.281 25.0363 13.1999 25.0363C10.7841 25.0312 8.87309 23.4859 8.38375 21.1319C8.31678 20.8073 8.29103 20.4674 8.29103 20.1377C8.28073 19.092 8.28588 18.0464 8.28588 16.9956C8.28588 15.9499 8.28588 14.9043 8.28588 13.8535C8.29103 11.4428 9.83633 9.53177 12.1955 9.04242C12.52 8.97546 12.86 8.94971 13.1948 8.94971C15.2861 8.9394 17.3826 8.94455 19.4739 8.94455C21.8845 8.94971 23.7904 10.5002 24.2798 12.8593C24.3467 13.1735 24.3725 13.5032 24.3725 13.8277C24.3828 15.9293 24.3828 18.0361 24.3776 20.1377C24.3622 22.5484 22.8014 24.4594 20.4474 24.9436Z" fill="#575756"/>
<path d="M22.7396 16.9904C22.7396 15.816 22.7705 14.6467 22.7293 13.4723C22.6778 11.9579 21.3334 10.6083 19.819 10.5877C17.4959 10.5517 15.1728 10.5517 12.8445 10.5877C11.3095 10.6083 9.94965 11.9527 9.91875 13.4929C9.87754 15.8263 9.87754 18.1649 9.91875 20.4983C9.9445 22.023 11.2941 23.3674 12.8136 23.3983C15.147 23.4395 17.4856 23.4395 19.819 23.3983C21.3643 23.3725 22.6778 22.0281 22.7293 20.4828C22.7757 19.3187 22.7448 18.1546 22.7396 16.9904ZM16.3369 21.1422C14.0344 21.1422 12.18 19.2929 12.1749 17.0007C12.1749 14.6982 14.019 12.8439 16.3112 12.8387C18.624 12.8387 20.4732 14.6931 20.4732 17.011C20.4783 19.2775 18.6085 21.1422 16.3369 21.1422ZM20.5195 13.8483C19.9529 13.8535 19.4739 13.3744 19.4842 12.813C19.4945 12.2515 19.9478 11.8137 20.5144 11.8188C21.0758 11.824 21.5291 12.2721 21.5343 12.8284C21.5394 13.3744 21.0707 13.8483 20.5195 13.8483Z" fill="#575756"/>
<path d="M16.306 14.4355C14.8946 14.4613 13.7408 15.6409 13.7769 17.0213C13.8129 18.4224 14.9564 19.5505 16.3369 19.5453C17.738 19.5402 18.9021 18.3658 18.8867 16.975C18.8661 15.5688 17.6916 14.4098 16.306 14.4355Z" fill="#575756"/>
</svg>
