<svg width="61" height="61" viewBox="0 0 61 61" fill="none" xmlns="http://www.w3.org/2000/svg">
<path d="M60.69 30.35C60.69 47.09 47.09 60.69 30.34 60.69C13.58 60.69 0 47.09 0 30.35C0 13.58 13.58 5.51928e-06 30.34 5.51928e-06C47.1 -0.00999448 60.69 13.57 60.69 30.35Z" fill="#020203"/>
<path d="M37.35 30.5498H31.72C31.72 39.0498 31.72 49.5398 31.72 49.5398H24.11C24.11 49.5398 24.11 39.1598 24.11 30.5498H20.32V22.9598H24.09V19.5298C24.09 16.4298 25.56 11.5698 32.07 11.5698L37.94 11.5998V18.0998C37.94 18.0998 34.37 18.0998 33.68 18.0998C32.99 18.0998 32.01 18.4298 32.01 19.9098V22.9598H38.04L37.35 30.5498Z" fill="white"/>
</svg>