<svg width="33" height="34" viewBox="0 0 33 34" fill="none" xmlns="http://www.w3.org/2000/svg">
<path d="M32.1968 17.0026C32.1968 25.8822 24.9934 33.0962 16.1032 33.0962C7.21309 33.0962 0.00444031 25.8822 0.00444031 17.0026C0.00444031 8.10718 7.20779 0.903824 16.1032 0.903824C24.9881 0.903824 32.1968 8.10188 32.1968 17.0026Z" fill="#676767"/>
<path fill-rule="evenodd" clip-rule="evenodd" d="M23.2164 10.6532H8.98478C7.06989 10.6532 5.521 12.2074 5.521 14.117V19.8722C5.521 21.7871 7.0752 23.336 8.98478 23.336H23.2164C25.1313 23.336 26.6802 21.7818 26.6802 19.8722V14.1223C26.6802 12.2074 25.1313 10.6532 23.2164 10.6532ZM14.0027 19.4161V14.5785L18.1932 16.9973L14.0027 19.4161Z" fill="white"/>
</svg>