<svg width="61" height="61" viewBox="0 0 61 61" fill="none" xmlns="http://www.w3.org/2000/svg">
<path d="M60.96 30.56C60.96 47.3 47.38 60.9 30.62 60.9C13.86 60.9 0.27002 47.3 0.27002 30.56C0.27002 13.79 13.87 0.209961 30.62 0.209961C47.38 0.209961 60.96 13.78 60.96 30.56Z" fill="#373636"/>
<path d="M42.88 20.65C42.88 21.51 42.18 22.19 41.34 22.19C40.5 22.19 39.8 21.51 39.8 20.65C39.8 19.81 40.5 19.11 41.34 19.11C42.18 19.11 42.88 19.81 42.88 20.65ZM47.78 20.4V39.54C47.78 43.19 44.83 46.15 41.17 46.15H21.75C18.1 46.15 15.14 43.19 15.14 39.54V20.4C15.14 16.75 18.11 13.78 21.75 13.78H41.17C44.83 13.78 47.78 16.75 47.78 20.4ZM45.38 20.4C45.38 18.08 43.4999 16.19 41.1799 16.19H21.76C19.44 16.19 17.5599 18.08 17.5599 20.4V39.54C17.5599 41.86 19.44 43.74 21.76 43.74H41.1799C43.5099 43.74 45.38 41.86 45.38 39.54V20.4ZM41.21 29.96C41.21 35.33 36.83 39.69 31.47 39.69C26.09 39.69 21.72 35.33 21.72 29.96C21.72 24.59 26.09 20.23 31.47 20.23C36.83 20.23 41.21 24.59 41.21 29.96ZM38.85 29.96C38.85 25.9 35.54 22.58 31.47 22.58C27.4 22.58 24.09 25.9 24.09 29.96C24.09 34.03 27.4 37.35 31.47 37.35C35.54 37.36 38.85 34.04 38.85 29.96Z" fill="white"/>
</svg>